<svg preserveAspectRatio="xMidYMid meet" width="24" height="24" overflow="hidden" viewBox="-4 -2.5 24 24" fill="none" xmlns="http://www.w3.org/2000/svg">
<path id="vector" d="M13.2529 9.35254C14.34 8.46594 15.9437 8.52967 16.957 9.54297C17.9703 10.5563 18.0341 12.16 17.1475 13.2471L16.957 13.457L12.3867 18.0273C11.871 18.5431 11.2256 18.9064 10.5215 19.0811L10.2168 19.1445L8.16602 19.4863C7.84769 19.5393 7.5232 19.4351 7.29492 19.207C7.06672 18.9788 6.96277 18.6543 7.01562 18.3359L7.35547 16.2861L7.41895 15.9805C7.59334 15.2753 7.9572 14.6287 8.47363 14.1123L13.043 9.54297L13.2529 9.35254ZM15.543 10.957C15.2619 10.676 14.8172 10.6585 14.5156 10.9043L14.457 10.957L9.8877 15.5264C9.62963 15.7844 9.44761 16.1076 9.36035 16.46L9.3291 16.6133L9.2168 17.2832L9.8877 17.1719L10.04 17.1406C10.3921 17.0533 10.7148 16.8712 10.9727 16.6133L15.543 12.043L15.5957 11.9844C15.8415 11.6828 15.824 11.2381 15.543 10.957ZM14 6V2.2998C13.9999 2.13427 13.8657 2.00011 13.7002 2H7V11.5C7 12.0523 6.55228 12.5 6 12.5C5.44772 12.5 5 12.0523 5 11.5V2H4C2.89543 2 2 2.89543 2 4V15C2 16.1046 2.89543 17 4 17C4.55228 17 5 17.4477 5 18C5 18.5523 4.55228 19 4 19C1.79086 19 0 17.2091 0 15V4C0 1.79086 1.79086 0 4 0H13.7002C14.9703 0.000105646 15.9999 1.0297 16 2.2998V6C16 6.55228 15.5523 7 15 7C14.4477 7 14 6.55228 14 6Z" fill="var(--fill-0, #0AAE49)"/>
</svg>
