<svg preserveAspectRatio="none" width="106" height="3" overflow="hidden" style="display: block;" viewBox="0 0 106.019 3" fill="none" xmlns="http://www.w3.org/2000/svg">
<path id="Vector 36" d="M1.00984 0.0152547C1.60394 -0.0238245 2.3827 0.0179605 2.97456 0.0753131C3.16005 0.0931009 3.06612 0.172613 3.19417 0.188472C3.44459 0.219387 3.6779 0.180391 3.92538 0.217219C4.00739 0.229814 3.9053 0.355761 3.9913 0.366084C4.46256 0.421745 4.90839 0.389665 5.38578 0.416438C7.73725 0.548528 10.0487 0.595807 12.4289 0.653192C13.2138 0.672006 14.1678 0.786308 14.9785 0.736322C15.0731 0.730373 15.0167 0.619823 15.0347 0.610712C15.3171 0.471225 15.2232 0.694402 15.4076 0.724054C16.1394 0.841131 16.9531 0.851313 17.6574 0.808648C17.957 0.790173 17.6566 0.570593 17.9583 0.693841C17.9793 0.702169 17.9032 0.819565 17.9854 0.832086C18.1718 0.860247 18.5253 0.839264 18.6697 0.848565C18.948 0.867085 18.9941 0.865904 19.2573 0.867242C19.6172 0.870092 20.0453 0.928449 20.4314 0.901849C20.5138 0.895822 20.4047 0.775478 20.5362 0.754999C20.6677 0.734553 21.0158 0.744757 21.1331 0.773126C21.2505 0.801509 21.2005 0.896098 21.2213 0.917779C21.3921 1.10077 21.7947 0.847326 21.8465 0.841058C22.791 0.73426 23.6009 0.87864 24.4874 0.878228C25.1605 0.877609 25.8801 0.829944 26.5205 0.83648C27.2835 0.844733 27.9301 0.909946 28.6713 0.898736C28.7495 0.897691 28.6578 0.756194 28.7534 0.754632C29.7684 0.738167 30.7764 0.753591 31.787 0.849114C31.8884 0.858819 31.7577 0.983052 31.859 1.00018C32.479 1.10227 33.46 1.34754 33.8282 0.806634C34.2481 0.827755 34.758 0.849578 35.1337 0.958611C35.3759 1.02879 35.1406 1.16413 35.4382 1.10638C35.5053 1.09351 35.418 0.974986 35.5187 0.964654C35.9424 0.921264 36.4054 0.959791 36.8246 0.898553C36.9099 0.885818 36.8866 0.779616 36.9107 0.760492C37.1138 0.605612 37.4518 0.861638 37.5255 0.880242C38.0866 1.01897 38.4963 0.964379 39.019 0.967766C39.1403 0.968612 38.997 0.825959 39.1137 0.821649C39.719 0.801203 40.3461 0.813464 40.9389 0.876763C41.0707 0.891186 40.9495 1.0127 41.0125 1.02581C41.2903 1.08214 41.3519 0.852626 41.6183 0.902215C41.6745 0.912374 41.6428 1.0164 41.6531 1.02782C41.8135 1.20717 41.9528 0.953052 41.994 0.947442C42.5158 0.870784 42.8493 1.13607 43.3533 1.0985C43.4136 1.09374 43.2776 0.962118 43.4472 0.95678C44.5764 0.920444 45.7707 0.956602 46.8885 1.06188C47.0622 1.07807 46.9382 1.17695 46.9491 1.18914C47.1274 1.37959 47.2427 1.12441 47.2994 1.1148C47.7464 1.04562 48.164 1.25962 48.4678 0.955681C50.3611 1.06116 52.2457 0.89048 54.1233 1.16277C54.1472 1.16593 54.1044 1.2916 54.152 1.29736C54.7255 1.36792 54.6154 1.1726 54.9949 0.933709C55.0904 0.873723 55.3813 1.16214 55.407 1.18328C55.5007 1.26119 55.4035 1.44816 55.4349 1.46325C55.6946 1.58172 55.6523 0.963389 56.0027 0.963189C56.0137 0.96422 55.9676 1.07803 55.997 1.08935C56.0884 1.12488 56.179 1.07965 56.2684 1.11883C56.473 1.20948 56.5459 1.50994 56.8585 1.33507C56.898 1.31238 56.8376 0.961634 57.1505 0.978203C57.2752 0.985106 57.8273 0.979094 57.982 1.00182C58.1365 1.02453 58.0304 1.13755 58.0414 1.14245C58.4578 1.29191 58.2999 1.35385 58.5086 1.57513C58.7172 1.79556 58.6593 1.2698 58.7443 1.21111C58.8295 1.1526 59.1348 1.27591 59.2098 1.31878C59.2848 1.36167 59.1913 1.43349 59.258 1.45776C59.7001 1.61632 59.452 1.19678 59.5977 1.11333C59.9411 0.915746 60.2086 1.30566 60.523 1.34386C60.6081 1.35418 60.5387 1.26538 60.6144 1.25707C60.9145 1.22536 61.0949 1.34702 61.4362 1.23547C61.4921 1.21729 61.768 0.982862 61.9466 1.1549C61.9719 1.17971 61.9 1.27687 62.0279 1.29864C62.2189 1.3313 62.5631 1.35254 62.7684 1.32006C62.92 1.29603 62.7463 1.13593 62.9371 1.18566C63.0219 1.20787 62.8647 1.30153 63.024 1.33544C63.1825 1.36934 63.5877 1.36523 63.7419 1.36199C63.8958 1.35869 63.8116 1.23724 63.824 1.22906C63.8993 1.18219 64.1946 1.12363 64.2207 1.12377C65.5373 1.10895 66.7514 1.31366 68.0333 1.2459C68.1339 1.24076 68.0669 1.11269 68.0822 1.11059C68.4266 1.05693 68.1551 1.39743 68.3957 1.5114C68.3609 1.25152 68.5029 1.29857 68.7455 1.27007C68.8624 1.25613 68.7987 1.1555 68.8094 1.1452C68.9828 0.992349 69.1035 1.18977 69.1346 1.23016C69.2494 1.37872 69.3743 1.20318 69.4525 1.30248C69.5305 1.40104 69.3508 1.54715 69.5835 1.54528C69.6487 1.45225 69.476 1.20913 69.6526 1.16973C70.3191 1.02069 71.5632 1.21144 72.0991 1.23125C72.6338 1.25105 72.8066 1.23389 73.1182 1.26751C73.6811 1.3283 73.4748 1.14792 73.8243 1.06536C74.1749 0.982808 74.0045 1.42662 74.0549 1.52202C74.1043 1.61739 74.1584 1.51922 74.2199 1.57165C74.2812 1.62406 74.1485 1.68893 74.2927 1.70861C74.437 1.72827 74.8316 1.55861 74.8828 1.45885C74.9909 1.24751 74.8131 1.02569 75.195 1.10363C75.2169 1.10826 75.1457 1.22495 75.2298 1.23675C75.8977 1.32659 76.5917 1.33215 77.2588 1.41161C77.3505 1.42272 77.2685 1.55254 77.3219 1.56048C77.8779 1.64351 77.6792 1.42462 77.9839 1.18145C77.9155 1.50505 78.084 1.70304 78.506 1.70495C78.7597 1.70621 78.7161 1.56487 78.8801 1.46526C78.9294 1.43523 79.1089 1.53228 79.1414 1.46581C79.2487 1.24854 79.0796 1.00532 79.5147 1.10217C79.5338 1.10677 79.473 1.2257 79.539 1.2329C79.9653 1.28005 80.0164 1.05278 80.4772 1.02526C80.8385 1.00367 81.481 1.14225 81.8923 1.16479C81.8837 1.52861 82.2722 1.4453 82.4298 1.19445C82.6968 1.20472 82.9851 1.19054 83.2431 1.22521C83.3319 1.23703 83.2736 1.34237 83.2848 1.35375C83.4565 1.5323 83.5726 1.28825 83.6302 1.27868C84.2547 1.18567 84.7635 1.37064 85.3595 1.18987C85.3807 1.18336 85.4149 0.930638 85.5743 1.11517C85.5846 1.12789 85.3877 1.24287 85.6681 1.25176C85.9485 1.26067 86.4771 1.39615 86.8664 1.27904C86.9606 1.25085 87.1989 1.04569 87.3902 1.20599C87.4156 1.22775 87.3878 1.30023 87.4245 1.34057C87.5434 1.46909 87.6084 1.21365 87.7481 1.43066C87.8878 1.64766 88.1785 1.81017 88.5711 1.66045C88.5836 1.6561 88.6765 1.45364 88.8 1.45684C88.9971 1.46212 89.2769 1.5043 89.4827 1.50298C89.5812 1.50228 89.5182 1.37656 89.5353 1.37426C90.1978 1.30381 90.6693 1.41589 91.3791 1.46453C91.5092 1.4737 91.8831 1.30226 92.1349 1.4378C92.4115 1.58617 92.1273 2.20337 92.763 2.05632C93.0194 1.99751 93.3441 1.21448 93.8048 1.62017C94.6985 1.51964 95.525 1.72727 96.4211 1.58373C96.4614 1.57737 96.5888 1.35883 96.6836 1.36181C96.8242 1.36665 96.9015 1.46879 97.0019 1.47552C97.4227 1.50628 97.8078 1.41889 98.2135 1.43249C98.3676 1.43743 98.3137 1.54304 98.4975 1.54894C98.6811 1.55475 98.8035 1.41567 99.0523 1.48284C99.2402 1.53404 99.4281 1.8183 99.6776 1.85143C99.6871 1.57104 99.8584 1.57682 100.163 1.5028C100.221 1.48844 100.159 1.39085 100.186 1.37902C100.299 1.32872 100.403 1.4096 100.51 1.35485C100.536 1.3417 100.538 1.24594 100.559 1.22979C100.74 1.08877 101.038 1.30416 101.089 1.34167C101.285 1.48409 101.377 1.35955 101.527 1.41564C101.678 1.47172 101.453 1.54183 101.629 1.57586C101.992 1.64625 102.46 1.63078 102.829 1.63518C102.977 1.63635 102.876 1.50853 102.897 1.50573C103.202 1.47331 103.51 1.60927 103.679 1.35467C103.891 2.01298 103.863 1.29081 104.299 1.4226C104.333 1.43326 104.377 1.74457 104.245 1.79027C104.113 1.83593 103.914 1.73862 103.731 1.80987C103.688 1.82658 103.439 2.1183 103.406 2.13598C103.141 2.27408 103.103 1.80887 103.089 1.78332C102.93 1.50757 102.627 1.82184 102.547 1.84356C102.182 1.94306 101.872 1.87764 101.566 1.94866C101.367 1.99456 101.347 2.29929 101.19 2.28997C100.669 2.25914 100.487 1.83403 99.9955 2.20263C99.8901 2.28124 99.9948 2.6143 99.6173 2.35241C99.5936 2.33589 99.3133 2.09631 99.1514 2.24785C99.1311 2.26696 99.1317 2.36403 99.1049 2.37218C98.9252 2.42493 98.8053 2.3476 98.6095 2.38463C98.4137 2.42167 98.1783 2.47688 97.9547 2.44396C97.82 2.42427 97.6471 2.24342 97.5826 2.19915C97.4005 2.0716 97.2053 2.28072 97.0925 2.12627C96.9787 1.97104 97.2011 1.7353 96.9028 1.635C96.8917 1.88719 96.8664 2.14603 96.8486 2.39965C96.1948 2.39077 95.5516 2.30922 94.8956 2.32036C94.8143 2.322 94.8974 2.45757 94.8103 2.46282C94.4425 2.48436 94.1212 2.38771 93.7397 2.4262C93.4445 2.45651 93.1207 2.60005 92.812 2.63622C92.6234 2.34765 92.1652 2.44561 91.8324 2.41924C91.7159 2.41013 91.7236 2.33305 91.6407 2.30791C91.328 2.21492 91.4745 2.46993 91.3888 2.51006C91.0209 2.68133 90.9894 2.10414 90.5556 2.1184C90.5327 2.11896 90.2518 2.42663 90.2131 2.44579C89.9673 2.57073 90.1724 2.3387 90.0186 2.31597C89.7377 2.27442 89.5425 2.20095 89.2129 2.29107C89.1168 2.31776 88.8864 2.50953 88.6997 2.36119C88.6752 2.34177 88.6887 2.24007 88.669 2.23412C88.3113 2.13484 88.3019 2.45439 88.0975 2.56261C87.8931 2.67081 87.5774 2.45022 87.5131 2.38665C87.345 2.22218 87.6419 2.31636 87.651 2.30022C87.7579 2.10815 87.5277 2.14122 87.3517 2.12499C87.3263 1.81167 87.0802 1.83048 87.1693 2.10943C87.1795 2.13989 87.3164 2.11068 87.3517 2.12499C87.1973 2.4324 86.9269 2.47177 86.6282 2.1845C86.4884 2.04986 86.6206 1.89288 86.1959 1.95031C86.0031 1.97623 86.0776 2.19197 85.9075 2.25078C85.5189 2.38498 85.014 2.18373 84.6133 2.21544C84.4679 2.22695 84.6096 2.34505 84.5102 2.35698C84.2465 2.38903 84.0139 2.30042 83.7491 2.34581C83.7251 2.35008 83.7837 2.47369 83.7014 2.47527C83.077 2.48963 82.5333 2.41045 81.8814 2.40825C81.5665 2.40725 81.0033 2.47543 80.677 2.46172C80.1115 2.43869 79.4158 2.25893 78.9327 2.3026C78.6176 2.33055 78.6868 2.4542 78.5517 2.53844C78.2912 2.70174 77.8301 2.40923 77.768 2.36394C77.7661 2.36244 78.0372 2.33329 77.8925 2.26983C77.8084 2.13758 77.771 2.36337 77.768 2.36394C77.7272 2.33468 77.1856 2.30661 77.078 2.33025C77.0196 2.34317 77.0522 2.46031 77.0218 2.46483C76.2975 2.56967 75.572 2.59944 74.8374 2.54467C74.8245 2.5423 74.844 2.41127 74.8136 2.40734C74.3883 2.34908 74.116 2.50937 73.7653 2.60454C73.4146 2.69967 73.1365 2.66781 72.9289 2.44286C72.6644 2.47118 72.2847 2.37173 72.0663 2.31139C71.8479 2.25105 71.8174 2.50612 71.7982 2.51116C71.1987 2.67255 70.8521 2.52655 70.2302 2.50383C69.9345 2.49259 69.348 2.52959 69.0278 2.55748C68.7748 2.57995 68.6223 2.52018 68.3892 2.5584C68.3577 2.5635 68.3895 2.67707 68.3799 2.68145C68.1197 2.81732 68.2448 2.53969 68.191 2.4901C67.9963 2.30978 67.8759 2.21375 67.5427 2.29857C67.4659 2.318 67.242 2.71776 67.1019 2.74114C66.9197 2.7708 66.9885 2.62751 66.7978 2.66222C66.7815 2.66506 66.7849 2.75346 66.6671 2.74956C66.1207 2.73263 65.525 2.68119 64.9572 2.69005C64.8797 2.69092 64.9791 2.83114 64.867 2.8347C64.3412 2.85132 63.7648 2.84614 63.2525 2.7805C63.1264 2.76391 63.2055 2.66573 63.1781 2.63658C63.0101 2.46021 62.7717 2.71648 62.7324 2.72136C61.7945 2.84451 61.0766 2.61259 60.1206 2.72301C60.0686 2.72949 59.668 3.00422 59.4893 2.7686C59.4771 2.75293 59.3003 2.51187 59.1439 2.67668C59.1342 2.687 59.2444 2.8111 59.0521 2.79845C58.8598 2.78583 58.5504 2.8687 58.2861 2.73235C58.2025 2.68939 58.0047 2.44893 57.7551 2.64061C57.7388 2.65399 57.3535 3.08742 57.216 2.78838C57.1937 2.73915 57.217 2.4227 56.9191 2.58495C56.8622 2.6164 56.9656 2.68699 56.8156 2.73107C56.5859 2.799 56.2815 2.71424 55.9991 2.85521C55.9498 2.88017 55.7402 3.09496 55.572 2.93193C55.5457 2.9064 55.5957 2.80075 55.5069 2.78893C55.0845 2.73221 54.6423 2.80288 54.2135 2.72978C54.0616 2.7041 54.1393 2.53331 53.981 2.48754C53.8226 2.44178 53.5036 2.39777 53.3379 2.47582C53.1722 2.5539 53.3532 2.82611 53.105 2.84789C52.0257 2.94249 50.9565 2.78281 49.8788 2.75945C49.719 2.75596 49.8515 2.85336 49.6159 2.85521C48.7475 2.86246 47.2481 2.95378 46.4945 2.74681C45.8908 2.58104 46.6506 2.45484 46.1892 2.38738C45.9665 2.3552 45.7257 2.67166 45.6719 2.68163C45.1469 2.78283 44.782 2.64265 44.3094 2.68566C44.2118 2.69458 44.3075 2.82285 44.2245 2.82903C43.9408 2.85127 43.6426 2.79402 43.3715 2.80449C43.2499 2.80948 43.2723 2.90745 43.1604 2.89989C42.8926 2.88293 42.6559 2.84175 42.3948 2.74993C42.371 2.74156 42.5315 2.61969 42.3334 2.61516C42.0127 2.60817 41.6147 2.51759 41.2458 2.61113C41.1364 2.63927 41.1321 2.86317 40.8968 2.70854C40.8475 2.67625 40.9104 2.4074 40.6364 2.6397C40.5903 2.6783 40.1299 2.99163 39.9039 2.78966C39.8443 2.7365 39.6922 2.5165 39.5606 2.55107C39.5427 2.55659 39.6142 2.67686 39.5052 2.68859C39.1208 2.72784 38.7179 2.715 38.323 2.75267C38.2176 2.76297 38.3746 2.88742 38.2175 2.89879C37.7852 2.93025 37.2456 2.89856 36.823 2.85961C36.6672 2.84501 36.7749 2.74192 36.7635 2.7307C36.5812 2.54823 36.4734 2.79452 36.4129 2.80889C36.0365 2.89488 35.7499 2.77918 35.403 2.8098C35.3073 2.81794 35.3752 2.93538 35.3561 2.94585C35.1585 3.04816 35.3057 2.83726 35.1806 2.81401C34.8301 2.74819 34.4394 2.75762 34.085 2.77263C33.9548 2.77832 34.1011 2.91449 33.9843 2.91802C33.2928 2.94148 32.5739 2.92845 31.899 2.85338C31.772 2.839 31.8519 2.73414 31.8254 2.71019C31.6429 2.54264 31.3754 2.77118 31.3138 2.79296C31.0339 2.89236 30.9252 2.79964 30.6781 2.81694C29.4706 2.90311 27.9798 2.8417 26.84 2.80376C25.3548 2.75493 24.2023 2.65518 22.786 2.68108C22.696 2.68259 22.7867 2.82209 22.7092 2.82518C21.7073 2.85881 20.721 2.8043 19.7172 2.84459C19.6348 2.84765 19.7536 2.97989 19.6213 2.98924C19.3501 3.00936 19.0066 3.00217 18.7324 2.95995C18.5987 2.9396 18.778 2.82613 18.6434 2.80797C18.33 2.76543 17.9939 2.75601 17.672 2.77721C17.535 2.78652 17.7417 2.92177 17.5636 2.92333C16.3504 2.93674 15.159 2.96004 13.933 2.7849C13.849 2.77287 13.7752 2.498 13.5965 2.55071C13.5831 2.62699 13.5838 2.71673 13.5779 2.79827C11.8119 2.84219 10.0638 2.7469 8.29282 2.73216C8.21815 2.73158 8.3472 2.87722 8.20264 2.87682C7.36593 2.87466 6.55344 2.91501 5.69759 2.77025C5.61267 2.75609 5.65624 2.49987 5.406 2.53862C5.36186 2.54569 4.98496 2.57987 4.88752 2.63549C4.87428 2.64388 4.94304 2.76347 4.8216 2.76696C4.11581 2.78512 3.3762 2.75781 2.67164 2.68474C2.55793 2.67272 2.67902 2.54536 2.59803 2.53569C2.02354 2.46809 1.39864 2.5649 0.849681 2.44927C0.482225 2.37141 0.618268 2.15126 0.423006 1.93456C0.395389 1.90399 0.167849 1.89914 0.156082 1.77306C0.125873 1.45602 0.236086 1.10886 0.190863 0.770929C0.181309 0.69814 -0.123426 0.776538 0.0569967 0.600641C0.0696011 0.588869 0.290535 0.53049 0.344951 0.47082C0.382838 0.429565 0.314565 0.301341 0.391865 0.24853C0.469159 0.195769 0.554095 0.303253 0.682247 0.241206C0.810341 0.178391 0.754017 0.032522 1.00984 0.0152547ZM71.0827 2.04168C70.8805 1.91918 70.8506 2.36783 71.0694 2.26049C71.08 2.25477 71.0931 2.04769 71.0827 2.04168ZM95.5552 1.97081C95.2908 1.77293 95.1099 2.0639 95.2964 2.21672C95.4829 2.36939 95.6358 2.0308 95.5552 1.97081ZM98.2973 1.82635C97.9882 1.67032 97.9396 2.30652 98.2706 2.17791C98.2898 2.17064 98.3153 1.8354 98.2973 1.82635ZM1.32853 1.87285C1.32573 1.8669 1.16217 1.86109 1.15826 1.86699C1.07117 2.00948 1.39823 2.02099 1.32853 1.87285ZM101.018 1.66906C100.922 1.583 100.644 1.68234 100.764 1.78936C100.86 1.87545 101.138 1.77611 101.018 1.66906ZM60.5315 1.56286C60.5283 1.55617 60.4111 1.55015 60.4134 1.58794C60.4214 1.70966 60.5846 1.67531 60.5315 1.56286ZM105.643 1.66173C104.96 1.63779 104.545 1.11226 105.289 1.17156C105.424 1.18229 104.999 1.33915 105.171 1.38653C105.484 1.47284 105.693 1.14288 106.013 1.31969C106.071 1.35206 105.682 1.66427 105.642 1.66247C105.642 1.66222 105.643 1.66198 105.643 1.66173ZM70.9662 1.5028C70.9622 1.49687 70.7999 1.49124 70.796 1.49712C70.7081 1.63955 71.0351 1.65097 70.9662 1.5028ZM53.689 1.28545C53.68 1.27281 53.3033 1.26099 53.291 1.27264C53.0945 1.50555 53.8561 1.53014 53.689 1.28545ZM81.8988 1.17449C82.0759 1.03121 82.2878 1.01433 82.429 1.19427C82.253 1.18472 82.0758 1.18331 81.8988 1.17449Z" fill="var(--stroke-0, #B60003)"/>
</svg>
