<svg preserveAspectRatio="none" width="121" height="4" overflow="hidden" style="display: block;" viewBox="0 0 121.017 4" fill="none" xmlns="http://www.w3.org/2000/svg">
<path id="Vector 35" d="M1.15269 0.0203396C1.83083 -0.0317659 2.71977 0.0239475 3.39535 0.100417C3.60707 0.124135 3.49986 0.230151 3.64602 0.251296C3.93187 0.292517 4.19818 0.240522 4.48067 0.289626C4.57429 0.306418 4.45775 0.474348 4.55592 0.488111C5.09384 0.562327 5.60274 0.519553 6.14766 0.55525C8.83178 0.73137 11.4702 0.79441 14.1872 0.870923C15.083 0.896008 16.172 1.04841 17.0974 0.981762C17.2054 0.973831 17.141 0.826431 17.1615 0.814282C17.4839 0.628299 17.3767 0.925869 17.5872 0.965405C18.4225 1.12151 19.3514 1.13508 20.1553 1.0782C20.4973 1.05356 20.1544 0.76079 20.4987 0.925122C20.5226 0.936225 20.4359 1.09275 20.5297 1.10945C20.7424 1.147 21.1459 1.11902 21.3108 1.13142C21.6285 1.15611 21.681 1.15454 21.9815 1.15632C22.3923 1.16012 22.8809 1.23793 23.3217 1.20246C23.4158 1.19443 23.2912 1.03397 23.4412 1.00666C23.5914 0.979403 23.9887 0.993009 24.1226 1.03083C24.2566 1.06868 24.1996 1.1948 24.2233 1.2237C24.4183 1.4677 24.8779 1.12977 24.937 1.12141C26.015 0.979013 26.9395 1.17152 27.9515 1.17097C28.7197 1.17015 29.5412 1.10659 30.2722 1.11531C31.143 1.12631 31.8811 1.21326 32.7272 1.19831C32.8165 1.19692 32.7118 1.00826 32.8209 1.00618C33.9795 0.984222 35.1301 1.00479 36.2837 1.13215C36.3994 1.14509 36.2503 1.31074 36.3658 1.33357C37.0735 1.4697 38.1933 1.79671 38.6136 1.07551C39.093 1.10367 39.6749 1.13277 40.1038 1.27815C40.3803 1.37172 40.1117 1.55217 40.4514 1.47517C40.528 1.45801 40.4284 1.29998 40.5432 1.2862C41.0269 1.22835 41.5554 1.27972 42.0339 1.19807C42.1312 1.18109 42.1046 1.03949 42.1322 1.01399C42.364 0.807483 42.7498 1.14885 42.8339 1.17366C43.4744 1.35863 43.9421 1.28584 44.5388 1.29036C44.6772 1.29148 44.5136 1.10128 44.6468 1.09553C45.3378 1.06827 46.0536 1.08462 46.7302 1.16902C46.8807 1.18825 46.7423 1.35027 46.8142 1.36775C47.1313 1.44285 47.2016 1.13683 47.5057 1.20295C47.5699 1.2165 47.5337 1.3552 47.5454 1.37043C47.7285 1.60956 47.8875 1.27074 47.9346 1.26326C48.5302 1.16105 48.9108 1.51476 49.4862 1.46467C49.555 1.45832 49.3998 1.28282 49.5933 1.27571C50.8823 1.22726 52.2455 1.27547 53.5214 1.41584C53.7198 1.43743 53.5782 1.56927 53.5906 1.58552C53.7941 1.83946 53.9257 1.49921 53.9904 1.4864C54.5007 1.39416 54.9774 1.6795 55.3241 1.27424C57.4852 1.41488 59.6364 1.18731 61.7797 1.55036C61.807 1.55457 61.7581 1.72214 61.8125 1.72981C62.4671 1.8239 62.3414 1.56346 62.7746 1.24495C62.8837 1.16496 63.2156 1.54952 63.245 1.57771C63.352 1.68158 63.241 1.93088 63.2768 1.951C63.5733 2.10896 63.525 1.28452 63.925 1.28425C63.9375 1.28563 63.8849 1.43738 63.9185 1.45246C64.0228 1.49983 64.1262 1.43953 64.2283 1.49177C64.4619 1.61264 64.545 2.01325 64.9018 1.7801C64.947 1.74984 64.878 1.28218 65.2351 1.30427C65.3775 1.31348 66.0076 1.30546 66.1842 1.33577C66.3606 1.36604 66.2395 1.51674 66.2521 1.52326C66.7274 1.72254 66.5472 1.80514 66.7853 2.10017C67.0234 2.39409 66.9574 1.69306 67.0544 1.61482C67.1517 1.53679 67.5002 1.70121 67.5858 1.75837C67.6714 1.81555 67.5646 1.91132 67.6407 1.94367C68.1454 2.15509 67.8622 1.59571 68.0285 1.48445C68.4205 1.22099 68.7259 1.74088 69.0847 1.79182C69.1818 1.80558 69.1026 1.68717 69.1891 1.6761C69.5315 1.63381 69.7375 1.79603 70.1271 1.64729C70.1909 1.62305 70.5058 1.31048 70.7097 1.53987C70.7386 1.57294 70.6565 1.7025 70.8025 1.73152C71.0206 1.77507 71.4134 1.80338 71.6478 1.76008C71.8208 1.72804 71.6225 1.51457 71.8403 1.58088C71.9371 1.61049 71.7577 1.73538 71.9395 1.78059C72.1204 1.82579 72.583 1.8203 72.759 1.81599C72.9346 1.81158 72.8385 1.64965 72.8527 1.63874C72.9386 1.57625 73.2757 1.49817 73.3055 1.49836C74.8084 1.47859 76.1942 1.75154 77.6574 1.6612C77.7723 1.65435 77.6958 1.48359 77.7133 1.48078C78.1064 1.40924 77.7965 1.86324 78.0711 2.01521C78.0314 1.66869 78.1935 1.73143 78.4704 1.69343C78.6038 1.67484 78.5312 1.54066 78.5433 1.52693C78.7412 1.32313 78.879 1.58636 78.9145 1.64021C79.0455 1.83829 79.1882 1.60424 79.2774 1.73664C79.3665 1.86805 79.1613 2.06287 79.4269 2.06037C79.5014 1.93633 79.3042 1.61218 79.5059 1.55964C80.2666 1.36092 81.6867 1.61525 82.2983 1.64167C82.9088 1.66807 83.106 1.64518 83.4617 1.69001C84.1042 1.77107 83.8687 1.53057 84.2677 1.42048C84.6678 1.31041 84.4733 1.90216 84.5308 2.02937C84.5873 2.15652 84.649 2.02563 84.7192 2.09553C84.7892 2.16541 84.6376 2.2519 84.8023 2.27814C84.967 2.30436 85.4174 2.07815 85.4758 1.94514C85.5993 1.66334 85.3963 1.36759 85.8322 1.47151C85.8573 1.47767 85.7759 1.63327 85.8719 1.649C86.6344 1.76878 87.4264 1.77621 88.188 1.88215C88.2927 1.89696 88.199 2.07006 88.26 2.08064C88.8947 2.19135 88.6678 1.89949 89.0157 1.57527C88.9376 2.00674 89.13 2.27071 89.6117 2.27326C89.9013 2.27494 89.8514 2.0865 90.0387 1.95368C90.0949 1.91365 90.2998 2.04304 90.3369 1.95442C90.4593 1.66472 90.2663 1.34042 90.763 1.46955C90.7848 1.47569 90.7154 1.63427 90.7907 1.64387C91.2774 1.70673 91.3356 1.40371 91.8617 1.36702C92.2741 1.33822 93.0075 1.523 93.477 1.55305C93.4671 2.03815 93.9106 1.92707 94.0905 1.5926C94.3952 1.60629 94.7244 1.58739 95.0189 1.63362C95.1203 1.64938 95.0537 1.78983 95.0664 1.805C95.2625 2.04306 95.3949 1.71766 95.4607 1.7049C96.1736 1.5809 96.7543 1.82752 97.4347 1.5865C97.4588 1.57782 97.4979 1.24085 97.6798 1.48689C97.6916 1.50385 97.4669 1.65716 97.7869 1.66902C98.107 1.6809 98.7104 1.86154 99.1547 1.70539C99.2623 1.6678 99.5343 1.39426 99.7526 1.60798C99.7816 1.637 99.7498 1.73365 99.7918 1.78742C99.9275 1.95878 100.002 1.61819 100.161 1.90754C100.321 2.19687 100.652 2.41356 101.101 2.21394C101.115 2.20813 101.221 1.93818 101.362 1.94245C101.587 1.9495 101.906 2.00573 102.141 2.00398C102.254 2.00304 102.182 1.83541 102.201 1.83235C102.957 1.73841 103.496 1.88785 104.306 1.95271C104.454 1.96493 104.881 1.73635 105.169 1.91706C105.484 2.11489 105.16 2.93783 105.885 2.74177C106.178 2.66335 106.549 1.61931 107.075 2.16023C108.095 2.02619 109.038 2.30303 110.061 2.11164C110.107 2.10316 110.253 1.81178 110.361 1.81574C110.521 1.8222 110.609 1.95838 110.724 1.96735C111.204 2.00838 111.644 1.89186 112.107 1.90998C112.283 1.91657 112.221 2.05738 112.431 2.06526C112.641 2.07299 112.78 1.88756 113.064 1.97712C113.279 2.04538 113.493 2.4244 113.778 2.46857C113.789 2.09472 113.985 2.10242 114.332 2.00373C114.399 1.98458 114.327 1.85446 114.359 1.83869C114.488 1.77163 114.607 1.87947 114.729 1.80647C114.758 1.78893 114.76 1.66126 114.784 1.63972C114.991 1.4517 115.331 1.73888 115.389 1.78889C115.613 1.97879 115.718 1.81274 115.89 1.88752C116.061 1.96229 115.805 2.05577 116.005 2.10114C116.42 2.195 116.954 2.17438 117.376 2.18024C117.544 2.1818 117.429 2.01137 117.453 2.00764C117.801 1.96441 118.153 2.1457 118.346 1.80622C118.587 2.68398 118.556 1.72109 119.053 1.8968C119.093 1.91101 119.142 2.32609 118.992 2.38703C118.842 2.44791 118.613 2.31816 118.405 2.41315C118.355 2.43545 118.072 2.82441 118.034 2.84797C117.731 3.03211 117.688 2.41182 117.672 2.37775C117.491 2.01009 117.145 2.42912 117.054 2.45808C116.637 2.59075 116.283 2.50351 115.934 2.59821C115.706 2.65942 115.684 3.06573 115.505 3.05329C114.91 3.01218 114.702 2.44538 114.141 2.93683C114.021 3.04165 114.14 3.48574 113.709 3.13654C113.682 3.11453 113.362 2.79508 113.178 2.99714C113.154 3.02261 113.155 3.15204 113.125 3.16291C112.919 3.23323 112.783 3.13013 112.559 3.17951C112.336 3.22889 112.067 3.30251 111.812 3.25861C111.658 3.23236 111.461 2.99123 111.387 2.9322C111.179 2.76213 110.956 3.04097 110.827 2.83503C110.698 2.62805 110.951 2.31373 110.611 2.18C110.598 2.51625 110.569 2.86137 110.549 3.19953C109.803 3.18769 109.068 3.07896 108.32 3.09382C108.227 3.09599 108.322 3.27676 108.222 3.28376C107.802 3.31247 107.436 3.18361 107 3.23493C106.663 3.27534 106.294 3.46674 105.941 3.51496C105.726 3.1302 105.203 3.26081 104.823 3.22565C104.69 3.2135 104.699 3.11074 104.604 3.07721C104.247 2.95322 104.415 3.29324 104.317 3.34675C103.897 3.57511 103.861 2.80551 103.366 2.82453C103.34 2.82528 103.019 3.23551 102.975 3.26105C102.694 3.42763 102.928 3.11827 102.753 3.08796C102.432 3.03257 102.209 2.9346 101.833 3.05475C101.724 3.09034 101.46 3.34604 101.247 3.14826C101.219 3.12236 101.235 2.98677 101.212 2.97883C100.804 2.84646 100.793 3.27252 100.56 3.41681C100.327 3.56108 99.9663 3.26696 99.8929 3.18219C99.701 2.96291 100.04 3.08848 100.05 3.06696C100.172 2.81087 99.9096 2.85496 99.7087 2.83332C99.6796 2.41556 99.3988 2.44064 99.5005 2.81257C99.5121 2.85319 99.6684 2.81423 99.7087 2.83332C99.5324 3.24319 99.2238 3.29569 98.8828 2.91266C98.7233 2.73315 98.8741 2.52384 98.3893 2.60041C98.1693 2.63497 98.2544 2.92262 98.0602 3.00104C97.6166 3.17997 97.0402 2.91165 96.5829 2.95392C96.417 2.96927 96.5787 3.12673 96.4652 3.14264C96.1642 3.18537 95.8987 3.06723 95.5964 3.12775C95.569 3.13343 95.6359 3.29826 95.5419 3.30036C94.8292 3.3195 94.2087 3.21393 93.4645 3.211C93.105 3.20966 92.4622 3.30057 92.0898 3.28229C91.4443 3.25159 90.6501 3.01191 90.0987 3.07013C89.739 3.1074 89.8179 3.27226 89.6638 3.38459C89.3665 3.60232 88.8401 3.21231 88.7692 3.15192C88.767 3.14992 89.0765 3.11106 88.9114 3.02643C88.8153 2.8501 88.7727 3.15116 88.7692 3.15192C88.7226 3.11291 88.1044 3.07549 87.9816 3.107C87.9149 3.12422 87.9522 3.28042 87.9174 3.28644C87.0907 3.42622 86.2626 3.46592 85.4241 3.39289C85.4094 3.38973 85.4316 3.21502 85.3969 3.20978C84.9115 3.1321 84.6006 3.34583 84.2003 3.47272C83.8 3.59956 83.4826 3.55708 83.2456 3.25715C82.9436 3.29491 82.5103 3.16231 82.2609 3.08185C82.0116 3.0014 81.9768 3.34149 81.9549 3.34821C81.2706 3.5634 80.875 3.36874 80.1651 3.33844C79.8276 3.32346 79.1581 3.37279 78.7926 3.40998C78.5038 3.43994 78.3298 3.36024 78.0637 3.4112C78.0277 3.418 78.0641 3.56943 78.0531 3.57526C77.7561 3.75643 77.8988 3.38625 77.8375 3.32013C77.6152 3.07971 77.4778 2.95166 77.0975 3.06476C77.0097 3.09067 76.7542 3.62368 76.5943 3.65485C76.3864 3.6944 76.4648 3.50335 76.2471 3.54963C76.2285 3.55341 76.2324 3.67128 76.098 3.66608C75.4743 3.64351 74.7943 3.57492 74.1462 3.58673C74.0577 3.5879 74.1712 3.77485 74.0433 3.77961C73.443 3.80177 72.7851 3.79485 72.2004 3.70734C72.0565 3.68521 72.1467 3.55431 72.1154 3.51545C71.9236 3.28028 71.6516 3.62197 71.6067 3.62848C70.5361 3.79269 69.7167 3.48345 68.6254 3.63068C68.566 3.63932 68.1088 4.00563 67.9048 3.69147C67.8908 3.67057 67.689 3.34915 67.5105 3.56891C67.4995 3.58266 67.6252 3.74813 67.4058 3.73127C67.1863 3.71444 66.8331 3.82494 66.5314 3.64313C66.4359 3.58586 66.2102 3.26524 65.9253 3.52082C65.9067 3.53866 65.4669 4.11656 65.3099 3.71784C65.2844 3.6522 65.3111 3.23026 64.9711 3.4466C64.9061 3.48854 65.024 3.58265 64.8529 3.64142C64.5906 3.732 64.2432 3.61899 63.9208 3.80695C63.8646 3.84022 63.6253 4.12661 63.4333 3.90924C63.4033 3.8752 63.4604 3.73433 63.359 3.71857C62.8769 3.64295 62.3721 3.73718 61.8827 3.63971C61.7093 3.60547 61.7979 3.37774 61.6172 3.31672C61.4365 3.25571 61.0723 3.19703 60.8832 3.30109C60.694 3.4052 60.9007 3.76814 60.6173 3.79718C59.3853 3.92332 58.1649 3.71041 56.9348 3.67926C56.7523 3.67461 56.9036 3.80448 56.6347 3.80695C55.6434 3.81661 53.9319 3.93838 53.0718 3.66242C52.3826 3.44139 53.2499 3.27312 52.7232 3.18317C52.4691 3.14026 52.1941 3.56222 52.1328 3.5755C51.5334 3.71044 51.1169 3.52353 50.5775 3.58088C50.4661 3.59278 50.5754 3.7638 50.4806 3.77204C50.1567 3.8017 49.8164 3.72536 49.507 3.73932C49.3681 3.74598 49.3937 3.8766 49.266 3.86652C48.9603 3.8439 48.6901 3.78899 48.3921 3.66657C48.3649 3.65541 48.548 3.49293 48.3219 3.48688C47.9559 3.47756 47.5016 3.35679 47.0806 3.48151C46.9556 3.51903 46.9507 3.81756 46.6822 3.61139C46.6258 3.56833 46.6977 3.20986 46.3849 3.5196C46.3322 3.57107 45.8067 3.98884 45.5488 3.71955C45.4808 3.64867 45.3071 3.35533 45.1569 3.40143C45.1365 3.40879 45.2181 3.56914 45.0937 3.58478C44.6549 3.63711 44.195 3.62001 43.7443 3.67023C43.6239 3.68396 43.8032 3.84989 43.6238 3.86505C43.1304 3.90699 42.5145 3.86475 42.032 3.81281C41.8542 3.79334 41.9771 3.65589 41.9642 3.64093C41.7561 3.39763 41.633 3.72603 41.5639 3.74518C41.1343 3.85984 40.8072 3.70558 40.4112 3.7464C40.3019 3.75725 40.3794 3.91384 40.3577 3.9278C40.1321 4.06422 40.3001 3.78301 40.1573 3.75202C39.7573 3.66425 39.3113 3.67683 38.9067 3.69684C38.7581 3.70442 38.9251 3.88598 38.7918 3.89069C38.0024 3.92198 37.1819 3.9046 36.4115 3.80451C36.2665 3.78533 36.3578 3.64552 36.3275 3.61359C36.1192 3.39018 35.8138 3.69491 35.7435 3.72394C35.4241 3.85648 35.3 3.73285 35.0178 3.75592C33.6396 3.87082 31.9378 3.78893 30.6369 3.73835C28.9415 3.67324 27.626 3.54023 26.0094 3.57477C25.9066 3.57679 26.0102 3.76278 25.9216 3.76691C24.7781 3.81175 23.6523 3.73907 22.5064 3.79279C22.4124 3.79687 22.5479 3.97319 22.397 3.98566C22.0875 4.01248 21.6953 4.0029 21.3823 3.9466C21.2297 3.91947 21.4344 3.76817 21.2808 3.74396C20.9229 3.68724 20.5394 3.67468 20.1719 3.70295C20.0155 3.71536 20.2515 3.89569 20.0482 3.89777C18.6634 3.91566 17.3034 3.94672 15.904 3.7132C15.8081 3.69716 15.7239 3.33066 15.5199 3.40094C15.5046 3.50266 15.5054 3.6223 15.4987 3.73102C13.4828 3.78958 11.4875 3.66253 9.46594 3.64289C9.38071 3.6421 9.52801 3.83629 9.363 3.83576C8.40794 3.83289 7.48051 3.88668 6.50359 3.69367C6.40666 3.67479 6.45639 3.33316 6.17074 3.38483C6.12036 3.39426 5.69015 3.43982 5.57892 3.51398C5.56381 3.52517 5.6423 3.68463 5.50367 3.68927C4.69805 3.71349 3.8538 3.67708 3.04958 3.57965C2.91978 3.56363 3.05801 3.39381 2.96556 3.38092C2.30979 3.29078 1.5965 3.41987 0.969879 3.26569C0.550442 3.16188 0.705729 2.86835 0.482846 2.57941C0.451321 2.53865 0.191593 2.53219 0.178162 2.36408C0.14368 1.94136 0.269484 1.47848 0.217863 1.0279C0.206957 0.930854 -0.140886 1.03538 0.0650596 0.800855C0.079447 0.785159 0.331635 0.70732 0.393749 0.62776C0.436995 0.572753 0.359064 0.401788 0.447299 0.331374C0.535527 0.261026 0.632478 0.404338 0.778759 0.321608C0.924974 0.237854 0.860682 0.0433626 1.15269 0.0203396ZM81.1382 2.72224C80.9073 2.55891 80.8733 3.1571 81.123 3.01398C81.1351 3.00635 81.1501 2.73025 81.1382 2.72224ZM109.073 2.62775C108.771 2.36391 108.564 2.75186 108.777 2.95563C108.99 3.15918 109.165 2.70773 109.073 2.62775ZM112.203 2.43513C111.85 2.2271 111.794 3.07535 112.172 2.90388C112.194 2.89419 112.223 2.44721 112.203 2.43513ZM1.51646 2.49714C1.51328 2.48919 1.32657 2.48145 1.32211 2.48933C1.2227 2.67931 1.59602 2.69466 1.51646 2.49714ZM115.309 2.22541C115.198 2.11067 114.881 2.24313 115.018 2.38581C115.128 2.5006 115.446 2.36815 115.309 2.22541ZM69.0944 2.08381C69.0908 2.0749 68.957 2.06687 68.9596 2.11726C68.9688 2.27954 69.155 2.23374 69.0944 2.08381ZM120.587 2.21565C119.807 2.18372 119.335 1.48302 120.184 1.56208C120.338 1.57639 119.852 1.78553 120.048 1.8487C120.406 1.96379 120.644 1.52384 121.01 1.75959C121.076 1.80274 120.632 2.21902 120.586 2.21662C120.586 2.2163 120.587 2.21597 120.587 2.21565ZM81.0053 2.00373C81.0007 1.99582 80.8154 1.98832 80.8109 1.99616C80.7106 2.18607 81.0838 2.20129 81.0053 2.00373ZM61.2839 1.71394C61.2737 1.69708 60.8437 1.68132 60.8297 1.69685C60.6053 2.0074 61.4747 2.04019 61.2839 1.71394ZM93.4844 1.56599C93.6866 1.37494 93.9284 1.35245 94.0896 1.59236C93.8887 1.57962 93.6864 1.57774 93.4844 1.56599Z" fill="var(--stroke-0, #B60003)"/>
</svg>
