<svg preserveAspectRatio="none" width="100%" height="100%" overflow="visible" style="display: block;" viewBox="0 0 13.9961 2.99707" fill="none" xmlns="http://www.w3.org/2000/svg">
<g id="vector">
<path d="M12.498 0C13.3254 0 13.9959 0.67069 13.9961 1.49805C13.9961 2.32555 13.3256 2.99707 12.498 2.99707C11.6705 2.99707 11 2.32555 11 1.49805C11.0002 0.670689 11.6706 0 12.498 0Z" fill="var(--fill-0, #0D0D0D)"/>
<path d="M1.49805 0C2.32544 0 2.99689 0.67069 2.99707 1.49805C2.99707 2.32555 2.32555 2.99707 1.49805 2.99707C0.67069 2.99689 0 2.32544 0 1.49805C0.000175859 0.670798 0.670798 0.000175859 1.49805 0Z" fill="var(--fill-0, #0D0D0D)"/>
<path d="M7.00034 0C7.82758 0.000175955 8.49821 0.670798 8.49838 1.49805C8.49838 2.32545 7.82769 2.99689 7.00034 2.99707C6.17283 2.99707 5.50131 2.32555 5.50131 1.49805C5.50149 0.67069 6.17294 0 7.00034 0Z" fill="var(--fill-0, #0D0D0D)"/>
</g>
</svg>
